<svg xmlns="http://www.w3.org/2000/svg" viewBox="0 0 110 110"><defs><style>.cls-1{fill:#f5f5f5;}.cls-2{fill:#3c4041;}</style></defs><title>Asset 6</title><g id="Layer_2" data-name="Layer 2"><g id="Layer_948" data-name="Layer 948"><rect class="cls-1" width="110" height="110" rx="7.49"/><path class="cls-2" d="M67.72,62.49V50.36a11.23,11.23,0,0,0-9.91-11.18l2.89-5.77a.84.84,0,0,0,0-.84.86.86,0,0,0-.74-.41H44.32a.86.86,0,0,0-.77,1.25l2.88,5.77a11.28,11.28,0,0,0-9.91,11.18V66h1.74V50.36a9.53,9.53,0,0,1,9.53-9.53h8.67A9.51,9.51,0,0,1,66,50.36V62.49Zm-11.8-23.4h-7.6l-2.6-5.2h12.8Z"/><path class="cls-2" d="M44.76,45.11a5.89,5.89,0,0,1,1.51-.63l-.43-1.67a7.22,7.22,0,0,0-2,.8Z"/><path class="cls-2" d="M40,53.83h1.73V50.36A6,6,0,0,1,43.56,46l-1.2-1.24A7.7,7.7,0,0,0,40,50.36Z"/><path class="cls-2" d="M28.59,74.75l14.72,8a11.29,11.29,0,0,0,5.4,1.38H77.26a.87.87,0,0,0,.86-.87V67.69a.86.86,0,0,0-.86-.86H70.62l-.1-.08a13.36,13.36,0,0,0-3.34-1.92A14,14,0,0,0,54.36,66H47.79a4.33,4.33,0,0,0-4.14,5.63L32.94,66.22a4.67,4.67,0,0,0-4.91.47,4.79,4.79,0,0,0-1.91,3.81v.1A4.72,4.72,0,0,0,28.59,74.75Zm42.6-6.19h5.2V82.43h-5.2ZM27.86,70.5a3,3,0,0,1,1.25-2.45,2.92,2.92,0,0,1,3.06-.28l13.5,6.76a.87.87,0,0,0,.39.1h13V72.89H47.79a2.6,2.6,0,0,1,0-5.2h6.83a.92.92,0,0,0,.48-.14,12.43,12.43,0,0,1,14.36.56V82.43H48.71a9.59,9.59,0,0,1-4.57-1.17l-14.72-8a3,3,0,0,1-1.56-2.63Z"/><path class="cls-2" d="M72.92,78.09h1.74v1.74H72.92Z"/><path class="cls-2" d="M53,62.49V60.76h.87a3.47,3.47,0,0,0,0-6.93H50.39a1.74,1.74,0,0,1,0-3.47h6.07V48.63H53V46.89H51.26v1.74h-.87a3.47,3.47,0,1,0,0,6.93h3.47a1.74,1.74,0,0,1,0,3.47H47.79v1.73h3.47v1.73Z"/></g></g></svg>