<svg xmlns="http://www.w3.org/2000/svg" viewBox="0 0 110 110"><defs><style>.cls-1{fill:#f5f5f5;}.cls-2{fill:#3c4041;}</style></defs><title>Asset 5</title><g id="Layer_2" data-name="Layer 2"><g id="Layer_947" data-name="Layer 947"><rect class="cls-1" width="110" height="110" rx="7.49"/><path class="cls-2" d="M71.39,65v3.19c-.16.66-1.23,4.53-4.41,4.53a1.11,1.11,0,0,0-1.11,1.1v6.62H44.93V72.72c0-3.49-2.16-4.41-3.31-4.41H34.74a2.07,2.07,0,0,1-1.94-2.2V62a1.09,1.09,0,0,0-.37-.83,6.41,6.41,0,0,0-4-1.68h0a1,1,0,0,1-1.07-.86l5.35-9.7a1.08,1.08,0,0,0,.14-.53V46.26A14.35,14.35,0,0,1,47.13,31.93v-2.2A16.54,16.54,0,0,0,30.6,46.26v1.86l-5.38,9.74a1.07,1.07,0,0,0-.13.53.6.6,0,0,0,0,.19,3.21,3.21,0,0,0,3.3,3.12,4,4,0,0,1,2.21.82v3.59a1,1,0,0,0,0,.25A4.28,4.28,0,0,0,35,70.51h6.58c.19,0,1.13.18,1.13,2.21v8.82a1.11,1.11,0,0,0,1.11,1.1H67a1.1,1.1,0,0,0,1.1-1.1V74.83c3.44-.65,5.09-4.29,5.49-6.3a1.64,1.64,0,0,0,0-.22V65Z"/><path class="cls-2" d="M60.36,29.73A17.64,17.64,0,1,0,78,47.36,17.63,17.63,0,0,0,60.36,29.73Zm0,33.07A15.44,15.44,0,1,1,75.8,47.36,15.43,15.43,0,0,1,60.36,62.8Z"/><path class="cls-2" d="M60.36,37.44a6.61,6.61,0,0,0-6.61,6.62v6.61a6.62,6.62,0,1,0,13.23,0V44.06A6.62,6.62,0,0,0,60.36,37.44Zm4.41,13.23a4.41,4.41,0,0,1-8.82,0V44.06a4.41,4.41,0,1,1,8.82,0Z"/><rect class="cls-2" x="62.57" y="49.3" width="2.2" height="9.35" transform="translate(-19.52 60.83) rotate(-45)"/></g></g></svg>