<svg xmlns="http://www.w3.org/2000/svg" viewBox="0 0 110 110"><defs><style>.cls-1{fill:#f5f5f5;}.cls-2{fill:#3c4041;}</style></defs><title>Asset 1</title><g id="Layer_2" data-name="Layer 2"><g id="Layer_943" data-name="Layer 943"><rect class="cls-1" width="110" height="110" rx="7.49"/><circle class="cls-2" cx="54.05" cy="32.25" r="1.51"/><path class="cls-2" d="M74.19,38.3a4,4,0,0,0-4-4h-5.6a6.08,6.08,0,0,0-2.81-1.78,2.78,2.78,0,0,1-1.91-1.91,6.05,6.05,0,0,0-11.63,0,2.79,2.79,0,0,1-1.92,1.91,6.08,6.08,0,0,0-2.81,1.78h-5.6a4,4,0,0,0-4,4V74.61a4,4,0,0,0,4,4H70.16a4,4,0,0,0,4-4Zm-30.25,0a4.05,4.05,0,0,1,2.91-3.85,4.78,4.78,0,0,0,3.29-3.29,4,4,0,0,1,7.76,0,4.78,4.78,0,0,0,3.29,3.29,4,4,0,0,1,2.92,3.88v2H43.94ZM70.16,76.62H37.88a2,2,0,0,1-2-2V38.3a2,2,0,0,1,2-2h4.38a6.13,6.13,0,0,0-.34,2v4.08h24.2v-4a6.12,6.12,0,0,0-.34-2h4.38a2,2,0,0,1,2,2V74.61A2,2,0,0,1,70.16,76.62Z"/><polygon class="cls-2" points="62.41 50.72 50.28 62.84 44.94 57.5 43.51 58.92 50.28 65.69 63.83 52.14 62.41 50.72"/></g></g></svg>