<svg xmlns="http://www.w3.org/2000/svg" viewBox="0 0 110 110"><defs><style>.cls-1{fill:#fff;}.cls-2{fill:#78ad30;}</style></defs><title>Asset 9</title><g id="Layer_2" data-name="Layer 2"><g id="Layer_998" data-name="Layer 998"><rect class="cls-1" x="1" y="1" width="108" height="108" rx="6.49"/><path class="cls-2" d="M102.51,2A5.49,5.49,0,0,1,108,7.49v95a5.49,5.49,0,0,1-5.49,5.49h-95A5.49,5.49,0,0,1,2,102.51v-95A5.49,5.49,0,0,1,7.49,2h95m0-2h-95A7.49,7.49,0,0,0,0,7.49v95A7.49,7.49,0,0,0,7.49,110h95a7.49,7.49,0,0,0,7.49-7.49v-95A7.49,7.49,0,0,0,102.51,0Z"/><path class="cls-2" d="M69.94,50.54a4.54,4.54,0,0,0-3.49,1.16c-.12.1-.23.22-.34.33a4.47,4.47,0,0,0-7-1.25l-.34.33a4.52,4.52,0,0,0-2.95-2.31,11.89,11.89,0,1,0-12.9,2.54v5.11L39.6,58.81a5.42,5.42,0,0,0-2,6.17l3.26,9.79a10,10,0,0,0,9.53,6.87H64A10.06,10.06,0,0,0,74,71.59V55.21A4.66,4.66,0,0,0,69.94,50.54ZM37.28,40.36A10.17,10.17,0,1,1,52,49.45V47.2a8.21,8.21,0,1,0-9.07,0v2.25A10.2,10.2,0,0,1,37.28,40.36Zm10.61-4.52a4.55,4.55,0,0,0-5,4.52V45A6.5,6.5,0,1,1,52,45V40.51A4.66,4.66,0,0,0,47.89,35.84ZM64,79.92H50.39a8.33,8.33,0,0,1-7.9-5.69l-3.26-9.8a3.7,3.7,0,0,1,1.37-4.21l2.31-1.65v7.51a.86.86,0,0,0,1.72,0V40.36a2.85,2.85,0,0,1,.92-2.09,2.8,2.8,0,0,1,2.18-.71,2.91,2.91,0,0,1,2.53,2.95V58.73a.86.86,0,1,0,1.72,0V53.22a2.82,2.82,0,0,1,3.1-2.8,2.91,2.91,0,0,1,2.53,3v6.27a.86.86,0,1,0,1.72,0V54.14a2.87,2.87,0,0,1,.92-2.09,2.8,2.8,0,0,1,2.18-.71A2.91,2.91,0,0,1,65,54.29v6.28a.86.86,0,0,0,1.72,0V55.06A2.85,2.85,0,0,1,67.6,53a2.8,2.8,0,0,1,2.18-.71,2.91,2.91,0,0,1,2.53,3V71.59h0A8.34,8.34,0,0,1,64,79.92Z"/></g></g></svg>