<svg xmlns="http://www.w3.org/2000/svg" viewBox="0 0 110 110"><defs><style>.cls-1{fill:#fff;}.cls-2{fill:#78ad30;}</style></defs><title>Asset 10</title><g id="Layer_2" data-name="Layer 2"><g id="Layer_999" data-name="Layer 999"><rect class="cls-1" x="1" y="1" width="108" height="108" rx="6.49"/><path class="cls-2" d="M102.51,2A5.49,5.49,0,0,1,108,7.49v95a5.49,5.49,0,0,1-5.49,5.49h-95A5.49,5.49,0,0,1,2,102.51v-95A5.49,5.49,0,0,1,7.49,2h95m0-2h-95A7.49,7.49,0,0,0,0,7.49v95A7.49,7.49,0,0,0,7.49,110h95a7.49,7.49,0,0,0,7.49-7.49v-95A7.49,7.49,0,0,0,102.51,0Z"/><path class="cls-2" d="M76.73,46.86a18.34,18.34,0,0,0-2-4.83l1.21-2-5.69-5.68-2,1.21a18.34,18.34,0,0,0-4.83-2l-.56-2.27h-8l-.56,2.27a18.07,18.07,0,0,0-4.83,2l-2-1.21L41.74,40,43,42a18.37,18.37,0,0,0-2,4.83l-2.26.56v8l2.26.56c.06.29.14.61.21.91a9,9,0,0,0-.59,1.77,9.35,9.35,0,0,0,.26,4.84l-12,10.25a5.44,5.44,0,1,0,7.67,7.67l10.25-12a9.35,9.35,0,0,0,4.84.26,9,9,0,0,0,1.77-.59l.91.21.56,2.26h8l.56-2.26a18.71,18.71,0,0,0,4.83-2l2,1.21,5.69-5.68-1.21-2a18.07,18.07,0,0,0,2-4.83L79,55.46v-8ZM51.23,68.07a7.58,7.58,0,0,1-4.44-.38l-.56-.22-11,12.9a3.76,3.76,0,1,1-5.3-5.3l12.9-11-.22-.56A7.6,7.6,0,0,1,42.21,59a7.49,7.49,0,0,1,4.94-5.51,7.82,7.82,0,0,1,2.45-.41,8.5,8.5,0,0,1,1.23.1l-3.19,3.19a4.68,4.68,0,0,0-1.38,2.76A4.42,4.42,0,0,0,51.11,64a4.68,4.68,0,0,0,2.76-1.38l3.19-3.19a7.6,7.6,0,0,1-.31,3.68,7.48,7.48,0,0,1-5.52,4.94ZM45.4,51.44A13.44,13.44,0,1,1,58.84,64.88c-.33,0-.66,0-1,0a8.14,8.14,0,0,0,.49-1.18,9.18,9.18,0,0,0-.06-6.12l-.45-1.24-5.15,5.15a3,3,0,0,1-1.74.9,2.73,2.73,0,0,1-3-3,3,3,0,0,1,.9-1.74L54,52.45,52.73,52a9.15,9.15,0,0,0-6.11-.06,8.14,8.14,0,0,0-1.18.49c0-.33,0-.66,0-1Zm31.92,2.7-2,.5-.11.51A16.68,16.68,0,0,1,73,60.4l-.27.44,1.06,1.76L70,66.42l-1.77-1.06-.44.28a16.56,16.56,0,0,1-5.25,2.18l-.5.11-.5,2H56.13l-.49-2-.25-.05a9.6,9.6,0,0,0,1.45-1.47,15.34,15.34,0,0,0,2,.15A15.12,15.12,0,1,0,43.72,51.44a15.34,15.34,0,0,0,.15,2,9.6,9.6,0,0,0-1.47,1.45l0-.25-2-.5v-5.4l2-.5.11-.5a16.71,16.71,0,0,1,2.18-5.26l.28-.43-1.06-1.77,3.82-3.82,1.76,1.06.44-.28a16.75,16.75,0,0,1,5.25-2.18l.51-.11.49-2h5.41l.5,2,.5.11a16.79,16.79,0,0,1,5.25,2.18l.44.28L70,36.46l3.82,3.82-1.06,1.77.27.43a16.73,16.73,0,0,1,2.19,5.26l.11.5,2,.5Z"/><path class="cls-2" d="M57.16,54.8H68.92V43h-5v1.68H60.52v3.36H57.16Zm8.4-10.08h1.68v8.4H65.56ZM63.88,46.4v6.72H62.2V46.4Zm-5,3.36h1.68v3.36H58.84Z"/><path class="cls-2" d="M55.74,41.85l-.52-1.6a11.8,11.8,0,0,0-7.58,7.57l1.6.52A10.11,10.11,0,0,1,55.74,41.85Z"/><path class="cls-2" d="M58.84,41.36V39.68a12.05,12.05,0,0,0-1.81.14l.26,1.66A9.83,9.83,0,0,1,58.84,41.36Z"/><path class="cls-2" d="M32.8,75a2.52,2.52,0,1,0,2.52,2.52A2.52,2.52,0,0,0,32.8,75Zm0,3.36a.84.84,0,1,1,0-1.68.84.84,0,1,1,0,1.68Z"/><path class="cls-2" d="M37.93,71.15,39.12,70l1.19,1.19-1.19,1.19Z"/><path class="cls-2" d="M40.31,68.77l1.13-1.12,1.18,1.18L41.5,70Z"/><path class="cls-2" d="M35.56,73.53l1.18-1.19,1.19,1.19-1.19,1.18Z"/><path class="cls-2" d="M63.33,60.47l.75,1.5A11.56,11.56,0,0,0,65.63,61l-1-1.37a10,10,0,0,1-1.33.8Z"/><path class="cls-2" d="M65.85,58.68,67,59.89a11,11,0,0,0,1.2-1.36l-1.34-1a10.29,10.29,0,0,1-1,1.16Z"/><path class="cls-2" d="M60.39,61.4l.26,1.66a11.83,11.83,0,0,0,1.76-.41l-.51-1.6A9.73,9.73,0,0,1,60.39,61.4Z"/></g></g></svg>