<svg xmlns="http://www.w3.org/2000/svg" viewBox="0 0 110 110"><defs><style>.cls-1{fill:#f5f5f5;}.cls-2{fill:#3c4041;}</style></defs><title>Asset 2</title><g id="Layer_2" data-name="Layer 2"><g id="Layer_944" data-name="Layer 944"><rect class="cls-1" width="110" height="110" rx="7.49"/><path class="cls-2" d="M74,72A25.89,25.89,0,1,0,35.92,36.91l-.05,0s0,0,0,.06A25.89,25.89,0,0,0,73.93,72.07s0,0,0,0ZM55,30.15A24.21,24.21,0,0,1,73.3,70.27l-9-8.31V39.23a.83.83,0,0,0-.84-.83H61.63V35.79a.84.84,0,1,0-1.68,0V38.4H46.61a.84.84,0,0,0-.84.83v5.7l-8.09-7.45A24.16,24.16,0,0,1,55,30.15ZM47.45,48.74l15.16,14v6H47.45Zm0-2.27v-6.4H62.61V60.42ZM55,78.61A24.2,24.2,0,0,1,36.56,38.72l9.21,8.48V69.53a.84.84,0,0,0,.84.83H63.44a.83.83,0,0,0,.84-.83V64.24l7.89,7.26A24.19,24.19,0,0,1,55,78.61Z"/></g></g></svg>